# xmcd
#
# Track frame offsets: 
#        150
#        12675
#        23325
#        35550
#        53475
#        74400
#        105375
#        117300
#        135075
#        147600
#        163500
#        176250
#        191850
#
# Disc length: 2689 seconds
#
# Revision: 0
# Processed by: cddbd v1.4PL0 Copyright (c) Steve Scherf et al.
# Submitted via: ExactAudioCopy v0.90a11
#
DISCID=aa0a7f0d
DTITLE=Bill Monroe - Lookin' Back
DYEAR=1900
DGENRE=
TTITLE0=On My Way Back Home
TTITLE1=I've Lived a Lot in By Time
TTITLE2=Footprint in the Snow
TTITLE3=The Old, Old House
TTITLE4=Ebenezer Scrooge
TTITLE5=Wayfaring Stranger
TTITLE6=Blue Moon of Kentucky
TTITLE7=Close By
TTITLE8=Foggy Mountain Breakdown
TTITLE9=Shuckin' the Corn
TTITLE10=Rocky Road Blues
TTITLE11=Mule Skinner Blues
TTITLE12=Rollin' in My Sweet Baby's Arms
EXTD=
EXTT0=
EXTT1=
EXTT2=
EXTT3=
EXTT4=
EXTT5=
EXTT6=
EXTT7=
EXTT8=
EXTT9=
EXTT10=
EXTT11=
EXTT12=
PLAYORDER=
